REM DIRINDEX 1\2,1\3,1\4,1\5
REM DIRNAME "folder01","folder02","folder03","folder04","folder05"
TITLE ""
FILE "P1Q_t_0089-0098.mp3" MP3
  TRACK 01 AUDIO
    TITLE "3:cjc173_1176"
    INDEX 01 00:00:00
  TRACK 02 AUDIO
    TITLE "0:"
    INDEX 01 00:01:14
  TRACK 03 AUDIO
    TITLE "4:cjc173_1177"
    INDEX 01 00:01:35
  TRACK 04 AUDIO
    TITLE "0:"
    INDEX 01 00:05:60
  TRACK 05 AUDIO
    TITLE "5:cjc173_1178"
    INDEX 01 00:06:07
  TRACK 06 AUDIO
    TITLE "0:"
    INDEX 01 00:09:46
  TRACK 07 AUDIO
    TITLE "3:cjc173_1179"
    INDEX 01 00:10:19
  TRACK 08 AUDIO
    TITLE "0:"
    INDEX 01 00:11:36
  TRACK 09 AUDIO
    TITLE "4:cjc173_1180"
    INDEX 01 00:11:59
  TRACK 10 AUDIO
    TITLE "0:"
    INDEX 01 00:15:27
  TRACK 11 AUDIO
    TITLE "5:cjc173_1181"
    INDEX 01 00:15:49
  TRACK 12 AUDIO
    TITLE "0:"
    INDEX 01 00:20:07
  TRACK 13 AUDIO
    TITLE "3:cjc173_1182"
    INDEX 01 00:20:52
  TRACK 14 AUDIO
    TITLE "0:"
    INDEX 01 00:21:61
  TRACK 15 AUDIO
    TITLE "4:cjc173_1183"
    INDEX 01 00:22:08
  TRACK 16 AUDIO
    TITLE "0:"
    INDEX 01 00:24:58
  TRACK 17 AUDIO
    TITLE "5:cjc173_1184"
    INDEX 01 00:25:04
  TRACK 18 AUDIO
    TITLE "0:"
    INDEX 01 00:30:07
  TRACK 19 AUDIO
    TITLE "3:cjc173_1185"
    INDEX 01 00:30:54
  TRACK 20 AUDIO
    TITLE "0:"
    INDEX 01 00:31:68
  TRACK 21 AUDIO
    TITLE "4:cjc173_1186"
    INDEX 01 00:32:14
  TRACK 22 AUDIO
    TITLE "0:"
    INDEX 01 00:38:21
  TRACK 23 AUDIO
    TITLE "5:cjc173_1187"
    INDEX 01 00:38:40
  TRACK 24 AUDIO
    TITLE "0:"
    INDEX 01 00:43:43
  TRACK 25 AUDIO
    TITLE "3:cjc173_1188"
    INDEX 01 00:44:15
  TRACK 26 AUDIO
    TITLE "0:"
    INDEX 01 00:45:33
  TRACK 27 AUDIO
    TITLE "4:cjc173_1189"
    INDEX 01 00:45:54
  TRACK 28 AUDIO
    TITLE "0:"
    INDEX 01 00:48:60
  TRACK 29 AUDIO
    TITLE "5:cjc173_1190"
    INDEX 01 00:49:05
  TRACK 30 AUDIO
    TITLE "0:"
    INDEX 01 00:52:50
  TRACK 31 AUDIO
    TITLE "3:cjc173_1191"
    INDEX 01 00:53:20
  TRACK 32 AUDIO
    TITLE "0:"
    INDEX 01 00:54:43
  TRACK 33 AUDIO
    TITLE "4:cjc173_1192"
    INDEX 01 00:54:65
  TRACK 34 AUDIO
    TITLE "0:"
    INDEX 01 00:58:63
  TRACK 35 AUDIO
    TITLE "5:cjc173_1193"
    INDEX 01 00:59:07
  TRACK 36 AUDIO
    TITLE "0:"
    INDEX 01 01:05:06
  TRACK 37 AUDIO
    TITLE "3:cjc173_1194"
    INDEX 01 01:05:51
  TRACK 38 AUDIO
    TITLE "0:"
    INDEX 01 01:06:60
  TRACK 39 AUDIO
    TITLE "4:cjc173_1195"
    INDEX 01 01:07:07
  TRACK 40 AUDIO
    TITLE "0:"
    INDEX 01 01:09:53
  TRACK 41 AUDIO
    TITLE "5:cjc173_1196"
    INDEX 01 01:09:72
  TRACK 42 AUDIO
    TITLE "0:"
    INDEX 01 01:15:20
  TRACK 43 AUDIO
    TITLE "3:cjc173_1197"
    INDEX 01 01:15:65
  TRACK 44 AUDIO
    TITLE "0:"
    INDEX 01 01:17:33
  TRACK 45 AUDIO
    TITLE "4:cjc173_1198"
    INDEX 01 01:17:52
  TRACK 46 AUDIO
    TITLE "0:"
    INDEX 01 01:20:19
  TRACK 47 AUDIO
    TITLE "5:cjc173_1199"
    INDEX 01 01:20:39
  TRACK 48 AUDIO
    TITLE "0:"
    INDEX 01 01:24:29
  TRACK 49 AUDIO
    TITLE "3:cjc173_1200"
    INDEX 01 01:25:01
  TRACK 50 AUDIO
    TITLE "0:"
    INDEX 01 01:26:28
  TRACK 51 AUDIO
    TITLE "4:cjc173_1201"
    INDEX 01 01:26:49
  TRACK 52 AUDIO
    TITLE "0:"
    INDEX 01 01:29:42
  TRACK 53 AUDIO
    TITLE "5:cjc173_1202"
    INDEX 01 01:29:63
  TRACK 54 AUDIO
    TITLE "0:"
    INDEX 01 01:34:31
  TRACK 55 AUDIO
    TITLE "3:cjc173_1203"
    INDEX 01 01:35:03
  TRACK 56 AUDIO
    TITLE "0:"
    INDEX 01 01:36:22
  TRACK 57 AUDIO
    TITLE "4:cjc173_1204"
    INDEX 01 01:36:44
  TRACK 58 AUDIO
    TITLE "0:"
    INDEX 01 01:38:68
  TRACK 59 AUDIO
    TITLE "5:cjc173_1205"
    INDEX 01 01:39:13
  TRACK 60 AUDIO
    TITLE "0:"
    INDEX 01 01:44:33
